<svg xmlns="http://www.w3.org/2000/svg" viewBox="0 0 512 512" width="512" height="512">
  <rect width="512" height="512" fill="#F4EDE1"/>
  <g transform="translate(-18,34) scale(0.4,0.4)"><g><g fill="#9b5832"><path d="M112 94 C 112 86 124 86 124 94 L 126 120 C 126 127 112 127 112 120 Z"/><path d="M278 94 C 278 86 290 86 290 94 L 292 120 C 292 127 278 127 278 120 Z"/><ellipse cx="119" cy="124" rx="12" ry="6"/><ellipse cx="285" cy="124" rx="12" ry="6"/></g><path d="
    M 14 44
    C 8 43 6 38 12 36
    C 26 32 44 32 58 36
    C 56 28 60 20 70 16
    C 84 11 100 18 104 32
    C 107 42 105 50 100 56
    C 116 60 132 63 148 64
    C 196 61 254 60 292 64
    C 300 56 308 44 312 30
    C 315 21 324 22 323 32
    C 322 46 318 58 312 68
    C 324 74 330 84 328 94
    C 325 107 306 113 282 111
    C 240 108 180 107 142 108
    C 118 109 104 105 96 97
    C 80 101 68 96 62 86
    C 57 77 58 64 64 56
    C 52 54 38 52 26 50
    C 18 49 14 47 14 44 Z" fill="#B2653A"/><path d="M 14 44 C 12 37 26 34 42 35 C 54 36 62 41 62 47 C 62 53 50 56 36 54 C 24 52 15 49 14 44 Z" fill="#C87C4E" opacity="0.9"/><path d="M98 98 C 114 106 140 110 176 110 C 224 110 272 111 300 107 C 314 105 323 100 327 93 C 328 103 318 111 302 113 C 266 118 182 116 142 114 C 118 113 104 107 95 99 Z" fill="#C87C4E" opacity="0.95"/><path d="M70 84 C 78 96 90 101 100 100 C 90 104 76 100 68 90 Z" fill="#C87C4E" opacity="0.55"/><g fill="#B2653A"><path d="M96 98 C 96 90 112 90 112 98 L 114 121 C 114 129 96 129 96 121 Z"/><path d="M264 102 C 264 94 280 94 280 102 L 282 121 C 282 129 264 129 264 121 Z"/></g><g fill="#b9734c"><ellipse cx="104" cy="125" rx="14" ry="7"/><ellipse cx="272" cy="125" rx="14" ry="7"/></g><path d="M84 24 C 96 24 101 35 100 51 C 99 67 93 77 84 78 C 76 79 72 70 71 56 C 70 41 75 24 84 24 Z" fill="#8E4C28"/><path d="M87 31 C 94 33 96 42 95 53 C 94 64 91 71 85 73" fill="none" stroke="#7a4122" stroke-width="1.5" opacity="0.4" stroke-linecap="round"/><ellipse cx="15" cy="41" rx="7.5" ry="6" fill="#211E1B"/><path d="M20 48 C 28 52 38 52 46 49" stroke="#211E1B" stroke-width="1.7" fill="none" stroke-linecap="round" opacity="0.5"/><circle cx="60" cy="34" r="4.4" fill="#211E1B"/><circle cx="61.6" cy="32.4" r="1.6" fill="#FFFFFF" opacity="0.92"/></g></g>
  <g transform="translate(240,110) scale(-0.4,0.4)"><g><g fill="#c6b492"><path d="M112 94 C 112 86 124 86 124 94 L 126 120 C 126 127 112 127 112 120 Z"/><path d="M278 94 C 278 86 290 86 290 94 L 292 120 C 292 127 278 127 278 120 Z"/><ellipse cx="119" cy="124" rx="12" ry="6"/><ellipse cx="285" cy="124" rx="12" ry="6"/></g><path d="
    M 14 44
    C 8 43 6 38 12 36
    C 26 32 44 32 58 36
    C 56 28 60 20 70 16
    C 84 11 100 18 104 32
    C 107 42 105 50 100 56
    C 116 60 132 63 148 64
    C 196 61 254 60 292 64
    C 300 56 308 44 312 30
    C 315 21 324 22 323 32
    C 322 46 318 58 312 68
    C 324 74 330 84 328 94
    C 325 107 306 113 282 111
    C 240 108 180 107 142 108
    C 118 109 104 105 96 97
    C 80 101 68 96 62 86
    C 57 77 58 64 64 56
    C 52 54 38 52 26 50
    C 18 49 14 47 14 44 Z" fill="#E4CFA8"/><path d="M 14 44 C 12 37 26 34 42 35 C 54 36 62 41 62 47 C 62 53 50 56 36 54 C 24 52 15 49 14 44 Z" fill="#F3E8D0" opacity="0.9"/><path d="M98 98 C 114 106 140 110 176 110 C 224 110 272 111 300 107 C 314 105 323 100 327 93 C 328 103 318 111 302 113 C 266 118 182 116 142 114 C 118 113 104 107 95 99 Z" fill="#F3E8D0" opacity="0.95"/><path d="M70 84 C 78 96 90 101 100 100 C 90 104 76 100 68 90 Z" fill="#F3E8D0" opacity="0.55"/><g fill="#E4CFA8"><path d="M96 98 C 96 90 112 90 112 98 L 114 121 C 114 129 96 129 96 121 Z"/><path d="M264 102 C 264 94 280 94 280 102 L 282 121 C 282 129 264 129 264 121 Z"/></g><g fill="#e6d3b0"><ellipse cx="104" cy="125" rx="14" ry="7"/><ellipse cx="272" cy="125" rx="14" ry="7"/></g><path d="M84 24 C 96 24 101 35 100 51 C 99 67 93 77 84 78 C 76 79 72 70 71 56 C 70 41 75 24 84 24 Z" fill="#C9AC7E"/><path d="M87 31 C 94 33 96 42 95 53 C 94 64 91 71 85 73" fill="none" stroke="#ad946c" stroke-width="1.5" opacity="0.4" stroke-linecap="round"/><ellipse cx="15" cy="41" rx="7.5" ry="6" fill="#211E1B"/><path d="M20 48 C 28 52 38 52 46 49" stroke="#211E1B" stroke-width="1.7" fill="none" stroke-linecap="round" opacity="0.5"/><circle cx="60" cy="34" r="4.4" fill="#211E1B"/><circle cx="61.6" cy="32.4" r="1.6" fill="#FFFFFF" opacity="0.92"/></g></g>
  <g transform="translate(-18,290) scale(0.4,0.4)"><g><g fill="#25221f"><path d="M112 94 C 112 86 124 86 124 94 L 126 120 C 126 127 112 127 112 120 Z"/><path d="M278 94 C 278 86 290 86 290 94 L 292 120 C 292 127 278 127 278 120 Z"/><ellipse cx="119" cy="124" rx="12" ry="6"/><ellipse cx="285" cy="124" rx="12" ry="6"/></g><path d="
    M 14 44
    C 8 43 6 38 12 36
    C 26 32 44 32 58 36
    C 56 28 60 20 70 16
    C 84 11 100 18 104 32
    C 107 42 105 50 100 56
    C 116 60 132 63 148 64
    C 196 61 254 60 292 64
    C 300 56 308 44 312 30
    C 315 21 324 22 323 32
    C 322 46 318 58 312 68
    C 324 74 330 84 328 94
    C 325 107 306 113 282 111
    C 240 108 180 107 142 108
    C 118 109 104 105 96 97
    C 80 101 68 96 62 86
    C 57 77 58 64 64 56
    C 52 54 38 52 26 50
    C 18 49 14 47 14 44 Z" fill="#2A2724"/><path d="M 14 44 C 12 37 26 34 42 35 C 54 36 62 41 62 47 C 62 53 50 56 36 54 C 24 52 15 49 14 44 Z" fill="#C08D4E" opacity="0.9"/><path d="M98 98 C 114 106 140 110 176 110 C 224 110 272 111 300 107 C 314 105 323 100 327 93 C 328 103 318 111 302 113 C 266 118 182 116 142 114 C 118 113 104 107 95 99 Z" fill="#C08D4E" opacity="0.95"/><path d="M70 84 C 78 96 90 101 100 100 C 90 104 76 100 68 90 Z" fill="#C08D4E" opacity="0.55"/><g fill="#2A2724"><path d="M96 98 C 96 90 112 90 112 98 L 114 121 C 114 129 96 129 96 121 Z"/><path d="M264 102 C 264 94 280 94 280 102 L 282 121 C 282 129 264 129 264 121 Z"/></g><g fill="#3d3a38"><ellipse cx="104" cy="125" rx="14" ry="7"/><ellipse cx="272" cy="125" rx="14" ry="7"/></g><path d="M84 24 C 96 24 101 35 100 51 C 99 67 93 77 84 78 C 76 79 72 70 71 56 C 70 41 75 24 84 24 Z" fill="#1F1D1A"/><path d="M87 31 C 94 33 96 42 95 53 C 94 64 91 71 85 73" fill="none" stroke="#1b1916" stroke-width="1.5" opacity="0.4" stroke-linecap="round"/><ellipse cx="15" cy="41" rx="7.5" ry="6" fill="#211E1B"/><path d="M20 48 C 28 52 38 52 46 49" stroke="#211E1B" stroke-width="1.7" fill="none" stroke-linecap="round" opacity="0.5"/><circle cx="60" cy="34" r="4.4" fill="#211E1B"/><circle cx="61.6" cy="32.4" r="1.6" fill="#FFFFFF" opacity="0.92"/></g></g>
  <g transform="translate(240,366) scale(-0.4,0.4)"><g><g fill="#503223"><path d="M112 94 C 112 86 124 86 124 94 L 126 120 C 126 127 112 127 112 120 Z"/><path d="M278 94 C 278 86 290 86 290 94 L 292 120 C 292 127 278 127 278 120 Z"/><ellipse cx="119" cy="124" rx="12" ry="6"/><ellipse cx="285" cy="124" rx="12" ry="6"/></g><path d="
    M 14 44
    C 8 43 6 38 12 36
    C 26 32 44 32 58 36
    C 56 28 60 20 70 16
    C 84 11 100 18 104 32
    C 107 42 105 50 100 56
    C 116 60 132 63 148 64
    C 196 61 254 60 292 64
    C 300 56 308 44 312 30
    C 315 21 324 22 323 32
    C 322 46 318 58 312 68
    C 324 74 330 84 328 94
    C 325 107 306 113 282 111
    C 240 108 180 107 142 108
    C 118 109 104 105 96 97
    C 80 101 68 96 62 86
    C 57 77 58 64 64 56
    C 52 54 38 52 26 50
    C 18 49 14 47 14 44 Z" fill="#5C3A28"/><path d="M 14 44 C 12 37 26 34 42 35 C 54 36 62 41 62 47 C 62 53 50 56 36 54 C 24 52 15 49 14 44 Z" fill="#C08D4E" opacity="0.9"/><path d="M98 98 C 114 106 140 110 176 110 C 224 110 272 111 300 107 C 314 105 323 100 327 93 C 328 103 318 111 302 113 C 266 118 182 116 142 114 C 118 113 104 107 95 99 Z" fill="#C08D4E" opacity="0.95"/><path d="M70 84 C 78 96 90 101 100 100 C 90 104 76 100 68 90 Z" fill="#C08D4E" opacity="0.55"/><g fill="#5C3A28"><path d="M96 98 C 96 90 112 90 112 98 L 114 121 C 114 129 96 129 96 121 Z"/><path d="M264 102 C 264 94 280 94 280 102 L 282 121 C 282 129 264 129 264 121 Z"/></g><g fill="#6b4c3b"><ellipse cx="104" cy="125" rx="14" ry="7"/><ellipse cx="272" cy="125" rx="14" ry="7"/></g><path d="M84 24 C 96 24 101 35 100 51 C 99 67 93 77 84 78 C 76 79 72 70 71 56 C 70 41 75 24 84 24 Z" fill="#4A2E1F"/><path d="M87 31 C 94 33 96 42 95 53 C 94 64 91 71 85 73" fill="none" stroke="#40281b" stroke-width="1.5" opacity="0.4" stroke-linecap="round"/><ellipse cx="15" cy="41" rx="7.5" ry="6" fill="#211E1B"/><path d="M20 48 C 28 52 38 52 46 49" stroke="#211E1B" stroke-width="1.7" fill="none" stroke-linecap="round" opacity="0.5"/><circle cx="60" cy="34" r="4.4" fill="#211E1B"/><circle cx="61.6" cy="32.4" r="1.6" fill="#FFFFFF" opacity="0.92"/></g></g>
  <g transform="translate(110,206) scale(-0.34,0.34)"><defs><clipPath id="bbpdapple110206-clip"><path d="M 14 44 C 8 43 6 38 12 36 C 26 32 44 32 58 36 C 56 28 60 20 70 16 C 84 11 100 18 104 32 C 107 42 105 50 100 56 C 116 60 132 63 148 64 C 196 61 254 60 292 64 C 300 56 308 44 312 30 C 315 21 324 22 323 32 C 322 46 318 58 312 68 C 324 74 330 84 328 94 C 325 107 306 113 282 111 C 240 108 180 107 142 108 C 118 109 104 105 96 97 C 80 101 68 96 62 86 C 57 77 58 64 64 56 C 52 54 38 52 26 50 C 18 49 14 47 14 44 Z"/></clipPath></defs><g><g fill="#605c57"><path d="M112 94 C 112 86 124 86 124 94 L 126 120 C 126 127 112 127 112 120 Z"/><path d="M278 94 C 278 86 290 86 290 94 L 292 120 C 292 127 278 127 278 120 Z"/><ellipse cx="119" cy="124" rx="12" ry="6"/><ellipse cx="285" cy="124" rx="12" ry="6"/></g><path d="
    M 14 44
    C 8 43 6 38 12 36
    C 26 32 44 32 58 36
    C 56 28 60 20 70 16
    C 84 11 100 18 104 32
    C 107 42 105 50 100 56
    C 116 60 132 63 148 64
    C 196 61 254 60 292 64
    C 300 56 308 44 312 30
    C 315 21 324 22 323 32
    C 322 46 318 58 312 68
    C 324 74 330 84 328 94
    C 325 107 306 113 282 111
    C 240 108 180 107 142 108
    C 118 109 104 105 96 97
    C 80 101 68 96 62 86
    C 57 77 58 64 64 56
    C 52 54 38 52 26 50
    C 18 49 14 47 14 44 Z" fill="#6E6A64"/><path d="M 14 44 C 12 37 26 34 42 35 C 54 36 62 41 62 47 C 62 53 50 56 36 54 C 24 52 15 49 14 44 Z" fill="#96918A" opacity="0.9"/><path d="M98 98 C 114 106 140 110 176 110 C 224 110 272 111 300 107 C 314 105 323 100 327 93 C 328 103 318 111 302 113 C 266 118 182 116 142 114 C 118 113 104 107 95 99 Z" fill="#96918A" opacity="0.5"/><path d="M70 84 C 78 96 90 101 100 100 C 90 104 76 100 68 90 Z" fill="#96918A" opacity="0.3"/><g fill="#6E6A64"><path d="M96 98 C 96 90 112 90 112 98 L 114 121 C 114 129 96 129 96 121 Z"/><path d="M264 102 C 264 94 280 94 280 102 L 282 121 C 282 129 264 129 264 121 Z"/></g><g fill="#7b7772"><ellipse cx="104" cy="125" rx="14" ry="7"/><ellipse cx="272" cy="125" rx="14" ry="7"/></g><path d="M84 24 C 96 24 101 35 100 51 C 99 67 93 77 84 78 C 76 79 72 70 71 56 C 70 41 75 24 84 24 Z" fill="#5A5650"/><path d="M87 31 C 94 33 96 42 95 53 C 94 64 91 71 85 73" fill="none" stroke="#4d4a45" stroke-width="1.5" opacity="0.4" stroke-linecap="round"/><ellipse cx="15" cy="41" rx="7.5" ry="6" fill="#211E1B"/><path d="M20 48 C 28 52 38 52 46 49" stroke="#211E1B" stroke-width="1.7" fill="none" stroke-linecap="round" opacity="0.5"/><circle cx="60" cy="34" r="4.4" fill="#211E1B"/><circle cx="61.6" cy="32.4" r="1.6" fill="#FFFFFF" opacity="0.92"/><g clip-path="url(#bbpdapple110206-clip)" opacity="0.85"><ellipse cx="130" cy="80" rx="9" ry="7.0200000000000005" fill="#33302C"/><ellipse cx="164" cy="74" rx="11" ry="8.58" fill="#33302C"/><ellipse cx="200" cy="86" rx="10" ry="7.800000000000001" fill="#33302C"/><ellipse cx="238" cy="76" rx="11" ry="8.58" fill="#33302C"/><ellipse cx="274" cy="88" rx="8" ry="6.24" fill="#33302C"/><ellipse cx="150" cy="98" rx="7" ry="5.46" fill="#33302C"/><ellipse cx="214" cy="100" rx="7" ry="5.46" fill="#33302C"/><ellipse cx="258" cy="98" rx="6" ry="4.68" fill="#33302C"/><ellipse cx="296" cy="86" rx="7" ry="5.46" fill="#33302C"/><ellipse cx="86" cy="38" rx="5" ry="3.9000000000000004" fill="#33302C"/><ellipse cx="180" cy="68" rx="6" ry="4.68" fill="#33302C"/><ellipse cx="252" cy="68" rx="6" ry="4.68" fill="#33302C"/><ellipse cx="110" cy="92" rx="5" ry="3.9000000000000004" fill="#33302C"/></g></g></g>
  <g transform="translate(366,462) scale(0.34,0.34)"><defs><clipPath id="bbpwire366462-clip"><path d="M 14 44 C 8 43 6 38 12 36 C 26 32 44 32 58 36 C 56 28 60 20 70 16 C 84 11 100 18 104 32 C 107 42 105 50 100 56 C 116 60 132 63 148 64 C 196 61 254 60 292 64 C 300 56 308 44 312 30 C 315 21 324 22 323 32 C 322 46 318 58 312 68 C 324 74 330 84 328 94 C 325 107 306 113 282 111 C 240 108 180 107 142 108 C 118 109 104 105 96 97 C 80 101 68 96 62 86 C 57 77 58 64 64 56 C 52 54 38 52 26 50 C 18 49 14 47 14 44 Z"/></clipPath></defs><g><g fill="#786a56"><path d="M112 94 C 112 86 124 86 124 94 L 126 120 C 126 127 112 127 112 120 Z"/><path d="M278 94 C 278 86 290 86 290 94 L 292 120 C 292 127 278 127 278 120 Z"/><ellipse cx="119" cy="124" rx="12" ry="6"/><ellipse cx="285" cy="124" rx="12" ry="6"/></g><path d="
    M 14 44
    C 8 43 6 38 12 36
    C 26 32 44 32 58 36
    C 56 28 60 20 70 16
    C 84 11 100 18 104 32
    C 107 42 105 50 100 56
    C 116 60 132 63 148 64
    C 196 61 254 60 292 64
    C 300 56 308 44 312 30
    C 315 21 324 22 323 32
    C 322 46 318 58 312 68
    C 324 74 330 84 328 94
    C 325 107 306 113 282 111
    C 240 108 180 107 142 108
    C 118 109 104 105 96 97
    C 80 101 68 96 62 86
    C 57 77 58 64 64 56
    C 52 54 38 52 26 50
    C 18 49 14 47 14 44 Z" fill="#8A7A63"/><path d="M 14 44 C 12 37 26 34 42 35 C 54 36 62 41 62 47 C 62 53 50 56 36 54 C 24 52 15 49 14 44 Z" fill="#B9A88E" opacity="0.9"/><path d="M98 98 C 114 106 140 110 176 110 C 224 110 272 111 300 107 C 314 105 323 100 327 93 C 328 103 318 111 302 113 C 266 118 182 116 142 114 C 118 113 104 107 95 99 Z" fill="#A2917A" opacity="0.95"/><path d="M70 84 C 78 96 90 101 100 100 C 90 104 76 100 68 90 Z" fill="#A2917A" opacity="0.55"/><g fill="#8A7A63"><path d="M96 98 C 96 90 112 90 112 98 L 114 121 C 114 129 96 129 96 121 Z"/><path d="M264 102 C 264 94 280 94 280 102 L 282 121 C 282 129 264 129 264 121 Z"/></g><g fill="#958671"><ellipse cx="104" cy="125" rx="14" ry="7"/><ellipse cx="272" cy="125" rx="14" ry="7"/></g><path d="M84 24 C 96 24 101 35 100 51 C 99 67 93 77 84 78 C 76 79 72 70 71 56 C 70 41 75 24 84 24 Z" fill="#6B5C48"/><path d="M87 31 C 94 33 96 42 95 53 C 94 64 91 71 85 73" fill="none" stroke="#5c4f3e" stroke-width="1.5" opacity="0.4" stroke-linecap="round"/><ellipse cx="15" cy="41" rx="7.5" ry="6" fill="#211E1B"/><path d="M20 48 C 28 52 38 52 46 49" stroke="#211E1B" stroke-width="1.7" fill="none" stroke-linecap="round" opacity="0.5"/><circle cx="60" cy="34" r="4.4" fill="#211E1B"/><circle cx="61.6" cy="32.4" r="1.6" fill="#FFFFFF" opacity="0.92"/><path d="M50 26 C 56 21 65 21 70 25" stroke="#6B5C48" stroke-width="4" fill="none" stroke-linecap="round"/><path d="M20 49 C 28 59 42 59 52 51 C 44 57 30 58 20 49 Z" fill="#6B5C48"/><g clip-path="url(#bbpwire366462-clip)" stroke="#6B5C48" stroke-width="1.5" stroke-linecap="round" opacity="0.55" fill="none"><path d="M72 62 l 5 -4"/><path d="M113 109 l 5 -4"/><path d="M154 108 l 5 -4"/><path d="M195 107 l 5 -4"/><path d="M236 106 l 5 -4"/><path d="M277 105 l 5 -4"/><path d="M86 104 l 5 -4"/><path d="M127 103 l 5 -4"/><path d="M168 102 l 5 -4"/><path d="M209 101 l 5 -4"/><path d="M250 100 l 5 -4"/><path d="M291 99 l 5 -4"/><path d="M100 98 l 5 -4"/><path d="M141 97 l 5 -4"/><path d="M182 96 l 5 -4"/><path d="M223 95 l 5 -4"/><path d="M264 94 l 5 -4"/><path d="M73 93 l 5 -4"/><path d="M114 92 l 5 -4"/><path d="M155 91 l 5 -4"/><path d="M196 90 l 5 -4"/><path d="M237 89 l 5 -4"/><path d="M278 88 l 5 -4"/><path d="M87 87 l 5 -4"/><path d="M128 86 l 5 -4"/><path d="M169 85 l 5 -4"/><path d="M210 84 l 5 -4"/><path d="M251 83 l 5 -4"/><path d="M292 82 l 5 -4"/><path d="M101 81 l 5 -4"/><path d="M142 80 l 5 -4"/><path d="M183 79 l 5 -4"/><path d="M224 78 l 5 -4"/><path d="M265 77 l 5 -4"/><path d="M74 76 l 5 -4"/><path d="M115 75 l 5 -4"/><path d="M156 74 l 5 -4"/><path d="M197 73 l 5 -4"/><path d="M238 72 l 5 -4"/><path d="M279 71 l 5 -4"/><path d="M88 70 l 5 -4"/><path d="M129 69 l 5 -4"/><path d="M170 68 l 5 -4"/><path d="M211 67 l 5 -4"/><path d="M252 66 l 5 -4"/><path d="M293 65 l 5 -4"/></g></g></g>
  <g transform="translate(366,-50) scale(0.34,0.34)"><defs><clipPath id="bbpwire366-50-clip"><path d="M 14 44 C 8 43 6 38 12 36 C 26 32 44 32 58 36 C 56 28 60 20 70 16 C 84 11 100 18 104 32 C 107 42 105 50 100 56 C 116 60 132 63 148 64 C 196 61 254 60 292 64 C 300 56 308 44 312 30 C 315 21 324 22 323 32 C 322 46 318 58 312 68 C 324 74 330 84 328 94 C 325 107 306 113 282 111 C 240 108 180 107 142 108 C 118 109 104 105 96 97 C 80 101 68 96 62 86 C 57 77 58 64 64 56 C 52 54 38 52 26 50 C 18 49 14 47 14 44 Z"/></clipPath></defs><g><g fill="#786a56"><path d="M112 94 C 112 86 124 86 124 94 L 126 120 C 126 127 112 127 112 120 Z"/><path d="M278 94 C 278 86 290 86 290 94 L 292 120 C 292 127 278 127 278 120 Z"/><ellipse cx="119" cy="124" rx="12" ry="6"/><ellipse cx="285" cy="124" rx="12" ry="6"/></g><path d="
    M 14 44
    C 8 43 6 38 12 36
    C 26 32 44 32 58 36
    C 56 28 60 20 70 16
    C 84 11 100 18 104 32
    C 107 42 105 50 100 56
    C 116 60 132 63 148 64
    C 196 61 254 60 292 64
    C 300 56 308 44 312 30
    C 315 21 324 22 323 32
    C 322 46 318 58 312 68
    C 324 74 330 84 328 94
    C 325 107 306 113 282 111
    C 240 108 180 107 142 108
    C 118 109 104 105 96 97
    C 80 101 68 96 62 86
    C 57 77 58 64 64 56
    C 52 54 38 52 26 50
    C 18 49 14 47 14 44 Z" fill="#8A7A63"/><path d="M 14 44 C 12 37 26 34 42 35 C 54 36 62 41 62 47 C 62 53 50 56 36 54 C 24 52 15 49 14 44 Z" fill="#B9A88E" opacity="0.9"/><path d="M98 98 C 114 106 140 110 176 110 C 224 110 272 111 300 107 C 314 105 323 100 327 93 C 328 103 318 111 302 113 C 266 118 182 116 142 114 C 118 113 104 107 95 99 Z" fill="#A2917A" opacity="0.95"/><path d="M70 84 C 78 96 90 101 100 100 C 90 104 76 100 68 90 Z" fill="#A2917A" opacity="0.55"/><g fill="#8A7A63"><path d="M96 98 C 96 90 112 90 112 98 L 114 121 C 114 129 96 129 96 121 Z"/><path d="M264 102 C 264 94 280 94 280 102 L 282 121 C 282 129 264 129 264 121 Z"/></g><g fill="#958671"><ellipse cx="104" cy="125" rx="14" ry="7"/><ellipse cx="272" cy="125" rx="14" ry="7"/></g><path d="M84 24 C 96 24 101 35 100 51 C 99 67 93 77 84 78 C 76 79 72 70 71 56 C 70 41 75 24 84 24 Z" fill="#6B5C48"/><path d="M87 31 C 94 33 96 42 95 53 C 94 64 91 71 85 73" fill="none" stroke="#5c4f3e" stroke-width="1.5" opacity="0.4" stroke-linecap="round"/><ellipse cx="15" cy="41" rx="7.5" ry="6" fill="#211E1B"/><path d="M20 48 C 28 52 38 52 46 49" stroke="#211E1B" stroke-width="1.7" fill="none" stroke-linecap="round" opacity="0.5"/><circle cx="60" cy="34" r="4.4" fill="#211E1B"/><circle cx="61.6" cy="32.4" r="1.6" fill="#FFFFFF" opacity="0.92"/><path d="M50 26 C 56 21 65 21 70 25" stroke="#6B5C48" stroke-width="4" fill="none" stroke-linecap="round"/><path d="M20 49 C 28 59 42 59 52 51 C 44 57 30 58 20 49 Z" fill="#6B5C48"/><g clip-path="url(#bbpwire366-50-clip)" stroke="#6B5C48" stroke-width="1.5" stroke-linecap="round" opacity="0.55" fill="none"><path d="M72 62 l 5 -4"/><path d="M113 109 l 5 -4"/><path d="M154 108 l 5 -4"/><path d="M195 107 l 5 -4"/><path d="M236 106 l 5 -4"/><path d="M277 105 l 5 -4"/><path d="M86 104 l 5 -4"/><path d="M127 103 l 5 -4"/><path d="M168 102 l 5 -4"/><path d="M209 101 l 5 -4"/><path d="M250 100 l 5 -4"/><path d="M291 99 l 5 -4"/><path d="M100 98 l 5 -4"/><path d="M141 97 l 5 -4"/><path d="M182 96 l 5 -4"/><path d="M223 95 l 5 -4"/><path d="M264 94 l 5 -4"/><path d="M73 93 l 5 -4"/><path d="M114 92 l 5 -4"/><path d="M155 91 l 5 -4"/><path d="M196 90 l 5 -4"/><path d="M237 89 l 5 -4"/><path d="M278 88 l 5 -4"/><path d="M87 87 l 5 -4"/><path d="M128 86 l 5 -4"/><path d="M169 85 l 5 -4"/><path d="M210 84 l 5 -4"/><path d="M251 83 l 5 -4"/><path d="M292 82 l 5 -4"/><path d="M101 81 l 5 -4"/><path d="M142 80 l 5 -4"/><path d="M183 79 l 5 -4"/><path d="M224 78 l 5 -4"/><path d="M265 77 l 5 -4"/><path d="M74 76 l 5 -4"/><path d="M115 75 l 5 -4"/><path d="M156 74 l 5 -4"/><path d="M197 73 l 5 -4"/><path d="M238 72 l 5 -4"/><path d="M279 71 l 5 -4"/><path d="M88 70 l 5 -4"/><path d="M129 69 l 5 -4"/><path d="M170 68 l 5 -4"/><path d="M211 67 l 5 -4"/><path d="M252 66 l 5 -4"/><path d="M293 65 l 5 -4"/></g></g></g>
  <g transform="translate(186,22) rotate(-12)">
    <circle cx="-21" cy="-4.290000000000001" r="7.800000000000001" fill="#C8891B"/>
    <circle cx="-21" cy="4.290000000000001" r="7.800000000000001" fill="#C8891B"/>
    <circle cx="21" cy="-4.290000000000001" r="7.800000000000001" fill="#C8891B"/>
    <circle cx="21" cy="4.290000000000001" r="7.800000000000001" fill="#C8891B"/>
    <rect x="-21" y="-7.5" width="42" height="15" rx="7.5" fill="#C8891B"/>
  </g>
  <g transform="translate(442,98) rotate(14)">
    <circle cx="-21" cy="-4.290000000000001" r="7.800000000000001" fill="#C8891B"/>
    <circle cx="-21" cy="4.290000000000001" r="7.800000000000001" fill="#C8891B"/>
    <circle cx="21" cy="-4.290000000000001" r="7.800000000000001" fill="#C8891B"/>
    <circle cx="21" cy="4.290000000000001" r="7.800000000000001" fill="#C8891B"/>
    <rect x="-21" y="-7.5" width="42" height="15" rx="7.5" fill="#C8891B"/>
  </g>
  <g transform="translate(186,278) rotate(8)">
    <circle cx="-21" cy="-4.290000000000001" r="7.800000000000001" fill="#C8891B"/>
    <circle cx="-21" cy="4.290000000000001" r="7.800000000000001" fill="#C8891B"/>
    <circle cx="21" cy="-4.290000000000001" r="7.800000000000001" fill="#C8891B"/>
    <circle cx="21" cy="4.290000000000001" r="7.800000000000001" fill="#C8891B"/>
    <rect x="-21" y="-7.5" width="42" height="15" rx="7.5" fill="#C8891B"/>
  </g>
  <g transform="translate(442,354) rotate(-16)">
    <circle cx="-21" cy="-4.290000000000001" r="7.800000000000001" fill="#C8891B"/>
    <circle cx="-21" cy="4.290000000000001" r="7.800000000000001" fill="#C8891B"/>
    <circle cx="21" cy="-4.290000000000001" r="7.800000000000001" fill="#C8891B"/>
    <circle cx="21" cy="4.290000000000001" r="7.800000000000001" fill="#C8891B"/>
    <rect x="-21" y="-7.5" width="42" height="15" rx="7.5" fill="#C8891B"/>
  </g>
  <g transform="translate(58,178) rotate(20)">
    <circle cx="-19" cy="-4.0040000000000004" r="7.28" fill="#9C5B3C"/>
    <circle cx="-19" cy="4.0040000000000004" r="7.28" fill="#9C5B3C"/>
    <circle cx="19" cy="-4.0040000000000004" r="7.28" fill="#9C5B3C"/>
    <circle cx="19" cy="4.0040000000000004" r="7.28" fill="#9C5B3C"/>
    <rect x="-19" y="-7" width="38" height="14" rx="7" fill="#9C5B3C"/>
  </g>
  <g transform="translate(314,434) rotate(-8)">
    <circle cx="-19" cy="-4.0040000000000004" r="7.28" fill="#9C5B3C"/>
    <circle cx="-19" cy="4.0040000000000004" r="7.28" fill="#9C5B3C"/>
    <circle cx="19" cy="-4.0040000000000004" r="7.28" fill="#9C5B3C"/>
    <circle cx="19" cy="4.0040000000000004" r="7.28" fill="#9C5B3C"/>
    <rect x="-19" y="-7" width="38" height="14" rx="7" fill="#9C5B3C"/>
  </g>
  <g transform="translate(150,168) rotate(0) scale(1)">
    <ellipse cx="-9" cy="-8" rx="4.2" ry="5.4" fill="#7C8B6F" transform="rotate(-18 -9 -8)"/>
    <ellipse cx="0"  cy="-11" rx="4.2" ry="5.6" fill="#7C8B6F"/>
    <ellipse cx="9"  cy="-8" rx="4.2" ry="5.4" fill="#7C8B6F" transform="rotate(18 9 -8)"/>
    <path d="M-10 4 C-10 -4 10 -4 10 4 C10 11 4 13 0 13 C-4 13 -10 11 -10 4 Z" fill="#7C8B6F"/>
  </g> <g transform="translate(408,258) rotate(20) scale(1)">
    <ellipse cx="-9" cy="-8" rx="4.2" ry="5.4" fill="#7C8B6F" transform="rotate(-18 -9 -8)"/>
    <ellipse cx="0"  cy="-11" rx="4.2" ry="5.6" fill="#7C8B6F"/>
    <ellipse cx="9"  cy="-8" rx="4.2" ry="5.4" fill="#7C8B6F" transform="rotate(18 9 -8)"/>
    <path d="M-10 4 C-10 -4 10 -4 10 4 C10 11 4 13 0 13 C-4 13 -10 11 -10 4 Z" fill="#7C8B6F"/>
  </g>
  <g transform="translate(150,424) rotate(-14) scale(1)">
    <ellipse cx="-9" cy="-8" rx="4.2" ry="5.4" fill="#7C8B6F" transform="rotate(-18 -9 -8)"/>
    <ellipse cx="0"  cy="-11" rx="4.2" ry="5.6" fill="#7C8B6F"/>
    <ellipse cx="9"  cy="-8" rx="4.2" ry="5.4" fill="#7C8B6F" transform="rotate(18 9 -8)"/>
    <path d="M-10 4 C-10 -4 10 -4 10 4 C10 11 4 13 0 13 C-4 13 -10 11 -10 4 Z" fill="#7C8B6F"/>
  </g> <g transform="translate(408,2) rotate(0) scale(1)">
    <ellipse cx="-9" cy="-8" rx="4.2" ry="5.4" fill="#7C8B6F" transform="rotate(-18 -9 -8)"/>
    <ellipse cx="0"  cy="-11" rx="4.2" ry="5.6" fill="#7C8B6F"/>
    <ellipse cx="9"  cy="-8" rx="4.2" ry="5.4" fill="#7C8B6F" transform="rotate(18 9 -8)"/>
    <path d="M-10 4 C-10 -4 10 -4 10 4 C10 11 4 13 0 13 C-4 13 -10 11 -10 4 Z" fill="#7C8B6F"/>
  </g>
  <g transform="translate(24,116) rotate(12) scale(0.85)">
    <ellipse cx="-9" cy="-8" rx="4.2" ry="5.4" fill="#E7DBC7" transform="rotate(-18 -9 -8)"/>
    <ellipse cx="0"  cy="-11" rx="4.2" ry="5.6" fill="#E7DBC7"/>
    <ellipse cx="9"  cy="-8" rx="4.2" ry="5.4" fill="#E7DBC7" transform="rotate(18 9 -8)"/>
    <path d="M-10 4 C-10 -4 10 -4 10 4 C10 11 4 13 0 13 C-4 13 -10 11 -10 4 Z" fill="#E7DBC7"/>
  </g> <g transform="translate(280,244) rotate(-20) scale(0.85)">
    <ellipse cx="-9" cy="-8" rx="4.2" ry="5.4" fill="#E7DBC7" transform="rotate(-18 -9 -8)"/>
    <ellipse cx="0"  cy="-11" rx="4.2" ry="5.6" fill="#E7DBC7"/>
    <ellipse cx="9"  cy="-8" rx="4.2" ry="5.4" fill="#E7DBC7" transform="rotate(18 9 -8)"/>
    <path d="M-10 4 C-10 -4 10 -4 10 4 C10 11 4 13 0 13 C-4 13 -10 11 -10 4 Z" fill="#E7DBC7"/>
  </g>
  <g transform="translate(24,372) rotate(12) scale(0.85)">
    <ellipse cx="-9" cy="-8" rx="4.2" ry="5.4" fill="#E7DBC7" transform="rotate(-18 -9 -8)"/>
    <ellipse cx="0"  cy="-11" rx="4.2" ry="5.6" fill="#E7DBC7"/>
    <ellipse cx="9"  cy="-8" rx="4.2" ry="5.4" fill="#E7DBC7" transform="rotate(18 9 -8)"/>
    <path d="M-10 4 C-10 -4 10 -4 10 4 C10 11 4 13 0 13 C-4 13 -10 11 -10 4 Z" fill="#E7DBC7"/>
  </g> <g transform="translate(280,500) rotate(-20) scale(0.85)">
    <ellipse cx="-9" cy="-8" rx="4.2" ry="5.4" fill="#E7DBC7" transform="rotate(-18 -9 -8)"/>
    <ellipse cx="0"  cy="-11" rx="4.2" ry="5.6" fill="#E7DBC7"/>
    <ellipse cx="9"  cy="-8" rx="4.2" ry="5.4" fill="#E7DBC7" transform="rotate(18 9 -8)"/>
    <path d="M-10 4 C-10 -4 10 -4 10 4 C10 11 4 13 0 13 C-4 13 -10 11 -10 4 Z" fill="#E7DBC7"/>
  </g>
  </svg>